<svg width="36" height="38" viewBox="0 0 36 38" fill="none" xmlns="http://www.w3.org/2000/svg">
<rect y="0.0258789" width="35.9974" height="37.0259" rx="10.285" fill="#CDC1FF"/>
<path d="M22 24.0259V23.0259H19V20.0259H22V22.0259H24V24.0259H23V26.0259H21V28.0259H19V25.0259H21V24.0259H22ZM27 28.0259H23V26.0259H25V24.0259H27V28.0259ZM9 10.0259H17V18.0259H9V10.0259ZM19 10.0259H27V18.0259H19V10.0259ZM9 20.0259H17V28.0259H9V20.0259ZM24 20.0259H27V22.0259H24V20.0259ZM12 13.0259V15.0259H14V13.0259H12ZM12 23.0259V25.0259H14V23.0259H12ZM22 13.0259V15.0259H24V13.0259H22Z" fill="#211F1F"/>
</svg>
