<svg width="36" height="38" viewBox="0 0 36 38" fill="none" xmlns="http://www.w3.org/2000/svg">
<rect y="0.103516" width="35.9974" height="37.0259" rx="10.285" fill="#77EDD9"/>
<path d="M22 24.1035V23.1035H19V20.1035H22V22.1035H24V24.1035H23V26.1035H21V28.1035H19V25.1035H21V24.1035H22ZM27 28.1035H23V26.1035H25V24.1035H27V28.1035ZM9 10.1035H17V18.1035H9V10.1035ZM19 10.1035H27V18.1035H19V10.1035ZM9 20.1035H17V28.1035H9V20.1035ZM24 20.1035H27V22.1035H24V20.1035ZM12 13.1035V15.1035H14V13.1035H12ZM12 23.1035V25.1035H14V23.1035H12ZM22 13.1035V15.1035H24V13.1035H22Z" fill="#211F1F"/>
</svg>
