<svg width="36" height="38" viewBox="0 0 36 38" fill="none" xmlns="http://www.w3.org/2000/svg">
<rect y="0.0776367" width="35.9974" height="37.0259" rx="10.285" fill="#81CCF2"/>
<path d="M22 24.0776V23.0776H19V20.0776H22V22.0776H24V24.0776H23V26.0776H21V28.0776H19V25.0776H21V24.0776H22ZM27 28.0776H23V26.0776H25V24.0776H27V28.0776ZM9 10.0776H17V18.0776H9V10.0776ZM19 10.0776H27V18.0776H19V10.0776ZM9 20.0776H17V28.0776H9V20.0776ZM24 20.0776H27V22.0776H24V20.0776ZM12 13.0776V15.0776H14V13.0776H12ZM12 23.0776V25.0776H14V23.0776H12ZM22 13.0776V15.0776H24V13.0776H22Z" fill="#211F1F"/>
</svg>
