<svg width="36" height="38" viewBox="0 0 36 38" fill="none" xmlns="http://www.w3.org/2000/svg">
<rect y="0.0517597" width="35.9974" height="37.0259" rx="10.285" fill="#7AE582"/>
<path d="M22 24.0518V23.0518H19V20.0518H22V22.0518H24V24.0518H23V26.0518H21V28.0518H19V25.0518H21V24.0518H22ZM27 28.0518H23V26.0518H25V24.0518H27V28.0518ZM9 10.0518H17V18.0518H9V10.0518ZM19 10.0518H27V18.0518H19V10.0518ZM9 20.0518H17V28.0518H9V20.0518ZM24 20.0518H27V22.0518H24V20.0518ZM12 13.0518V15.0518H14V13.0518H12ZM12 23.0518V25.0518H14V23.0518H12ZM22 13.0518V15.0518H24V13.0518H22Z" fill="#211F1F"/>
</svg>
